<svg width="27" height="27" viewBox="0 0 27 27" fill="none" xmlns="http://www.w3.org/2000/svg">
<path fill-rule="evenodd" clip-rule="evenodd" d="M9.65182 26.7266H15.0355V18.1351C15.0355 15.87 15.4659 13.6764 18.2695 13.6764C21.0325 13.6764 21.0694 16.2668 21.0694 18.2807V26.7266H26.4541V17.2003C26.4541 12.5248 25.447 8.92755 19.9904 8.92755C17.3689 8.92755 15.6112 10.367 14.892 11.7325H14.8196V9.35945H9.65182V26.7266ZM3.57887 0.726562C5.30146 0.726562 6.70163 2.1289 6.70163 3.85523C6.70163 5.58281 5.30146 6.98541 3.57887 6.98541C1.85175 6.98541 0.454102 5.58281 0.454102 3.85523C0.454102 2.1289 1.85175 0.726562 3.57887 0.726562ZM0.883234 26.7266H6.27174V9.35945H0.883234V26.7266Z" fill="white"/>
</svg>
