<svg width="125" height="38" viewBox="0 0 125 38" fill="none" xmlns="http://www.w3.org/2000/svg">
<path d="M55.0763 14.06H56.8363L53.3563 24H50.2963L46.7563 14.06H48.5563L51.8363 23.38L55.0763 14.06ZM68.6161 14.06V26.68C68.6161 27.48 68.1761 27.9 67.2361 27.9H59.6361V26.38H66.8361V21.3C66.2961 23.08 64.9161 24.2 62.7161 24.2C60.4361 24.2 59.0761 22.72 59.0761 20.04V14.06H60.8561V19.84C60.8561 21.88 61.6361 22.68 63.3361 22.68C65.4961 22.68 66.8361 20.96 66.8361 18.28V14.06H68.6161ZM75.9278 24.2C72.9678 24.2 71.2478 22.8 71.2478 20.34H73.0278C73.0278 21.98 74.1078 22.8 75.9478 22.8C77.3478 22.8 78.0678 22.36 78.0678 21.34C78.0678 20.66 77.6478 20.26 76.6078 19.98L73.9478 19.2C72.8278 18.88 71.6478 18.16 71.6478 16.58C71.6478 14.84 73.0878 13.86 75.4478 13.86C78.0078 13.86 79.6078 15.04 79.6078 17.2H77.8278C77.8278 16 76.9878 15.24 75.4678 15.24C74.1878 15.24 73.4078 15.8 73.4078 16.54C73.4078 17.2 73.8478 17.6 74.8278 17.88L77.1478 18.54C78.8278 19.02 79.8478 19.84 79.8478 21.38C79.8478 23.18 78.4878 24.2 75.9278 24.2ZM82.2031 19.02C82.2031 16.08 84.3031 13.86 87.4831 13.86C90.6431 13.86 92.7431 16.08 92.7431 19.02C92.7431 21.98 90.6431 24.2 87.4831 24.2C84.3031 24.2 82.2031 21.98 82.2031 19.02ZM83.9631 19.02C83.9631 21.04 85.2031 22.68 87.4831 22.68C89.7431 22.68 90.9831 21.04 90.9831 19.02C90.9831 17.02 89.7431 15.38 87.4831 15.38C85.2031 15.38 83.9631 17.02 83.9631 19.02ZM95.7422 24V9.3H97.5222V16.46C98.1822 14.96 99.5822 13.86 101.782 13.86C104.642 13.86 106.442 16 106.442 19.02C106.442 22.04 104.642 24.2 101.782 24.2C99.6422 24.2 98.2222 23.14 97.5222 21.56V24H95.7422ZM97.5622 19.02C97.5622 21.48 99.2622 22.68 101.202 22.68C103.142 22.68 104.682 21.52 104.682 19.02C104.682 16.52 103.142 15.38 101.202 15.38C99.2622 15.38 97.5622 16.6 97.5622 19.02ZM108.345 24V22.48H111.105V15.58H109.045V14.06H111.625C112.345 14.06 112.745 14.4 112.745 15.22V22.48H115.525V24H108.345ZM110.305 11.02C110.305 10.24 110.925 9.68 111.705 9.68C112.505 9.68 113.145 10.24 113.145 11.02C113.145 11.8 112.505 12.36 111.705 12.36C110.925 12.36 110.305 11.8 110.305 11.02ZM123.795 22.48V24H119.895C118.955 24 118.495 23.56 118.495 22.6V15.58H116.295V14.06H118.495V11.54L120.275 11V14.06H123.395V15.58H120.275V22.5L123.795 22.48Z" fill="white"/>
<path fill-rule="evenodd" clip-rule="evenodd" d="M19 -1.66103e-06C8.50659 -2.5784e-06 2.5784e-06 8.50659 1.66103e-06 19C7.4367e-07 29.4934 8.50659 38 19 38C29.4934 38 38 29.4934 38 19C38 18.0649 37.9324 17.1455 37.8019 16.2465C37.9305 15.8543 38 15.4353 38 15L38 4C38 1.79086 36.2091 -1.56562e-07 34 -3.49691e-07L23 -1.31134e-06C22.5648 -1.34939e-06 22.1457 0.0695138 21.7535 0.198054C20.8545 0.067553 19.9351 -1.57928e-06 19 -1.66103e-06ZM21.7535 0.198054C20.1547 0.721918 19 2.22611 19 4L19 15C19 17.2091 20.7909 19 23 19L34 19C35.7739 19 37.2781 17.8453 37.8019 16.2465C36.5986 7.95696 30.043 1.40143 21.7535 0.198054Z" fill="#3658C1"/>
</svg>
